<svg width="20" height="20" viewBox="0 0 20 20" fill="none" xmlns="http://www.w3.org/2000/svg">
<path d="M6.14663 10.0619C6.95314 11.7274 8.29989 13.0707 9.96746 13.873C10.0905 13.9312 10.2265 13.9564 10.3622 13.9461C10.4979 13.9358 10.6286 13.8903 10.7414 13.8142L13.1907 12.1781C13.2989 12.1047 13.4239 12.0599 13.5541 12.0479C13.6843 12.0359 13.8154 12.0571 13.9352 12.1095L18.5202 14.0787C18.6769 14.1439 18.8078 14.2588 18.8928 14.4058C18.9778 14.5527 19.0121 14.7235 18.9905 14.8919C18.8452 16.0261 18.2915 17.0685 17.4332 17.8241C16.5749 18.5796 15.4706 18.9965 14.3271 18.9968C10.7934 18.9968 7.40441 17.593 4.90569 15.0943C2.40698 12.5956 1.00321 9.20661 1.00321 5.67289C1.00347 4.52938 1.42038 3.42515 2.17594 2.56681C2.93149 1.70847 3.97391 1.15484 5.10815 1.00952C5.2765 0.987895 5.44729 1.02221 5.59422 1.10718C5.74115 1.19216 5.85608 1.32307 5.9213 1.47978L7.89049 6.07456C7.9417 6.19247 7.96313 6.32116 7.95287 6.44929C7.94262 6.57743 7.90101 6.70107 7.83171 6.80934L6.19562 9.29777C6.12278 9.41032 6.08002 9.53968 6.07145 9.67347C6.06287 9.80726 6.08876 9.94101 6.14663 10.0619V10.0619Z" stroke="#B0B0B0" stroke-width="2" stroke-linecap="round" stroke-linejoin="round"/>
</svg>
