<svg width="22" height="22" viewBox="0 0 22 22" fill="none" xmlns="http://www.w3.org/2000/svg">
<path d="M7.12845 10.8803C6.78241 10.0313 6.60613 9.12283 6.60958 8.2061C6.60958 6.78517 7.03093 5.39616 7.82036 4.2147C8.60978 3.03325 9.73182 2.11241 11.0446 1.56865C12.3573 1.02488 13.8019 0.88261 15.1955 1.15982C16.5891 1.43703 17.8692 2.12127 18.874 3.12601C19.8787 4.13076 20.563 5.41088 20.8402 6.80451C21.1174 8.19813 20.9751 9.64266 20.4314 10.9554C19.8876 12.2682 18.9668 13.3902 17.7853 14.1796C16.6038 14.9691 15.2148 15.3904 13.7939 15.3904C12.8772 15.3939 11.9687 15.2176 11.1197 14.8716V14.8716L9.80261 16.1887H7.40784V18.5835H5.01306V20.9782H1.02177V16.9869L7.12845 10.8803Z" stroke="#B0B0B0" stroke-width="2" stroke-linecap="round" stroke-linejoin="round"/>
</svg>
