<svg width="28" height="28" viewBox="0 0 28 28" fill="none" xmlns="http://www.w3.org/2000/svg">
<path d="M14.5501 21.8485L20.851 25.8491C21.6636 26.3617 22.6638 25.5991 22.4263 24.6614L20.601 17.4854C20.5516 17.2865 20.5595 17.0777 20.6236 16.883C20.6878 16.6884 20.8056 16.5158 20.9635 16.3852L26.6144 11.672C27.352 11.0595 26.9769 9.82178 26.0143 9.75927L18.6382 9.2842C18.4369 9.27249 18.2435 9.20241 18.0814 9.08252C17.9193 8.96263 17.7957 8.79812 17.7256 8.6091L14.9752 1.68309C14.9024 1.48294 14.7697 1.31004 14.5953 1.18786C14.4208 1.06568 14.213 1.00015 14 1.00015C13.787 1.00015 13.5792 1.06568 13.4048 1.18786C13.2303 1.31004 13.0977 1.48294 13.0249 1.68309L10.2745 8.6091C10.2044 8.79812 10.0807 8.96263 9.91867 9.08252C9.75659 9.20241 9.56311 9.27249 9.36185 9.2842L1.98577 9.75927C1.02313 9.82178 0.648075 11.0595 1.38568 11.672L7.03651 16.3852C7.19445 16.5158 7.31228 16.6884 7.37642 16.883C7.44057 17.0777 7.44842 17.2865 7.39906 17.4854L5.71131 24.1364C5.42377 25.2615 6.62395 26.1742 7.58659 25.5616L13.4499 21.8485C13.6144 21.744 13.8052 21.6885 14 21.6885C14.1949 21.6885 14.3857 21.744 14.5501 21.8485V21.8485Z" stroke="#FFFF00" stroke-width="2" stroke-linecap="round" stroke-linejoin="round"/>
</svg>
