<svg width="22" height="21" viewBox="0 0 22 21" fill="none" xmlns="http://www.w3.org/2000/svg">
<path d="M11.2847 16.8196L16.0624 19.853C16.6786 20.2417 17.437 19.6635 17.2568 18.9525L15.8728 13.5112C15.8354 13.3604 15.8414 13.202 15.89 13.0545C15.9386 12.9069 16.028 12.776 16.1477 12.677L20.4325 9.10319C20.9918 8.63869 20.7074 7.70021 19.9775 7.65281L14.3845 7.29259C14.2319 7.28371 14.0852 7.23057 13.9623 7.13966C13.8394 7.04876 13.7457 6.92402 13.6925 6.78069L11.607 1.529C11.5518 1.37724 11.4512 1.24613 11.319 1.15349C11.1867 1.06085 11.0291 1.01116 10.8676 1.01116C10.7061 1.01116 10.5485 1.06085 10.4163 1.15349C10.284 1.24613 10.1834 1.37724 10.1282 1.529L8.04269 6.78069C7.98954 6.92402 7.89579 7.04876 7.77289 7.13966C7.65 7.23057 7.50329 7.28371 7.35068 7.29259L1.75772 7.65281C1.0278 7.70021 0.743409 8.63869 1.3027 9.10319L5.58748 12.677C5.70724 12.776 5.79658 12.9069 5.84522 13.0545C5.89386 13.202 5.89981 13.3604 5.86239 13.5112L4.58264 18.5543C4.36461 19.4075 5.27465 20.0995 6.00458 19.635L10.4505 16.8196C10.5752 16.7403 10.7199 16.6982 10.8676 16.6982C11.0154 16.6982 11.16 16.7403 11.2847 16.8196V16.8196Z" stroke="#6A6A6B" stroke-width="2" stroke-linecap="round" stroke-linejoin="round"/>
</svg>
