<svg width="21" height="21" viewBox="0 0 21 21" fill="none" xmlns="http://www.w3.org/2000/svg">
<path d="M6.81867 10.3861C6.48964 9.57894 6.32202 8.71506 6.3253 7.84338C6.3253 6.49227 6.72595 5.1715 7.47659 4.0481C8.22722 2.92469 9.29413 2.0491 10.5424 1.53205C11.7907 1.01501 13.1642 0.879725 14.4894 1.14331C15.8145 1.4069 17.0317 2.05752 17.9871 3.0129C18.9425 3.96828 19.5931 5.1855 19.8567 6.51065C20.1203 7.8358 19.985 9.20935 19.4679 10.4576C18.9509 11.7059 18.0753 12.7728 16.9519 13.5234C15.8285 14.2741 14.5077 14.6747 13.1566 14.6747C12.2849 14.678 11.4211 14.5104 10.6139 14.1813V14.1813L9.36145 15.4337H7.08434V17.7108H4.80723V19.988H1.01205V16.1928L6.81867 10.3861Z" stroke="black" stroke-width="2" stroke-linecap="round" stroke-linejoin="round"/>
</svg>
