<svg width="20" height="20" viewBox="0 0 20 20" fill="none" xmlns="http://www.w3.org/2000/svg">
<path d="M13.4219 1H6.57813C6.48074 0.999663 6.38424 1.01853 6.29415 1.05553C6.20407 1.09253 6.12216 1.14694 6.05313 1.21563L1.21563 6.05313C1.14694 6.12216 1.09253 6.20407 1.05553 6.29415C1.01853 6.38424 0.999663 6.48074 1 6.57813V13.4219C0.999663 13.5193 1.01853 13.6158 1.05553 13.7059C1.09253 13.7959 1.14694 13.8778 1.21563 13.9469L6.05313 18.7844C6.12216 18.8531 6.20407 18.9075 6.29415 18.9445C6.38424 18.9815 6.48074 19.0003 6.57813 19H13.4219C13.5193 19.0003 13.6158 18.9815 13.7059 18.9445C13.7959 18.9075 13.8778 18.8531 13.9469 18.7844L18.7844 13.9469C18.8531 13.8778 18.9075 13.7959 18.9445 13.7059C18.9815 13.6158 19.0003 13.5193 19 13.4219V6.57813C19.0003 6.48074 18.9815 6.38424 18.9445 6.29415C18.9075 6.20407 18.8531 6.12216 18.7844 6.05313L13.9469 1.21563C13.8778 1.14694 13.7959 1.09253 13.7059 1.05553C13.6158 1.01853 13.5193 0.999663 13.4219 1V1Z" stroke="black" stroke-width="2" stroke-miterlimit="10"/>
</svg>
