<svg width="26" height="26" viewBox="0 0 26 26" fill="none" xmlns="http://www.w3.org/2000/svg">
<path d="M13 16.3369C14.8429 16.3369 16.3369 14.8429 16.3369 13C16.3369 11.1571 14.8429 9.6631 13 9.6631C11.1571 9.6631 9.6631 11.1571 9.6631 13C9.6631 14.8429 11.1571 16.3369 13 16.3369Z" stroke="#090A0A" stroke-width="1.5" stroke-linecap="round" stroke-linejoin="round"/>
<path d="M21.231 16.3369C21.083 16.6724 21.0388 17.0445 21.1042 17.4054C21.1696 17.7662 21.3416 18.0991 21.5981 18.3613L21.6648 18.428C21.8716 18.6346 22.0357 18.88 22.1477 19.15C22.2596 19.4201 22.3173 19.7096 22.3173 20.0019C22.3173 20.2943 22.2596 20.5838 22.1477 20.8538C22.0357 21.1239 21.8716 21.3692 21.6648 21.5758C21.4582 21.7827 21.2129 21.9467 20.9428 22.0587C20.6727 22.1707 20.3833 22.2283 20.0909 22.2283C19.7986 22.2283 19.5091 22.1707 19.239 22.0587C18.969 21.9467 18.7236 21.7827 18.517 21.5758L18.4503 21.5091C18.1881 21.2527 17.8552 21.0807 17.4943 21.0152C17.1335 20.9498 16.7614 20.994 16.4259 21.142C16.0969 21.283 15.8163 21.5171 15.6187 21.8156C15.4211 22.114 15.315 22.4637 15.3136 22.8216V23.0107C15.3136 23.6007 15.0792 24.1665 14.662 24.5837C14.2448 25.0009 13.679 25.2353 13.089 25.2353C12.499 25.2353 11.9331 25.0009 11.516 24.5837C11.0988 24.1665 10.8644 23.6007 10.8644 23.0107V22.9106C10.8558 22.5424 10.7366 22.1854 10.5224 21.8858C10.3081 21.5863 10.0087 21.3581 9.6631 21.231C9.32761 21.083 8.95546 21.0388 8.59464 21.1042C8.23381 21.1696 7.90086 21.3416 7.63872 21.5981L7.57198 21.6648C7.36537 21.8716 7.12003 22.0357 6.84996 22.1477C6.5799 22.2596 6.29042 22.3173 5.99807 22.3173C5.70573 22.3173 5.41625 22.2596 5.14619 22.1477C4.87612 22.0357 4.63078 21.8716 4.42417 21.6648C4.21734 21.4582 4.05325 21.2129 3.9413 20.9428C3.82935 20.6727 3.77173 20.3833 3.77173 20.0909C3.77173 19.7986 3.82935 19.5091 3.9413 19.239C4.05325 18.969 4.21734 18.7236 4.42417 18.517L4.49091 18.4503C4.74733 18.1881 4.91935 17.8552 4.98478 17.4943C5.0502 17.1335 5.00603 16.7614 4.85797 16.4259C4.71697 16.0969 4.48285 15.8163 4.18443 15.6187C3.88601 15.4211 3.53632 15.315 3.1784 15.3136H2.9893C2.3993 15.3136 1.83347 15.0792 1.41628 14.662C0.999083 14.2448 0.764706 13.679 0.764706 13.089C0.764706 12.499 0.999083 11.9331 1.41628 11.516C1.83347 11.0988 2.3993 10.8644 2.9893 10.8644H3.08941C3.45758 10.8558 3.81464 10.7366 4.11417 10.5224C4.41371 10.3081 4.64187 10.0087 4.76898 9.6631C4.91705 9.32761 4.96122 8.95546 4.89579 8.59464C4.83037 8.23381 4.65835 7.90086 4.40193 7.63872L4.33519 7.57198C4.12835 7.36537 3.96427 7.12003 3.85232 6.84996C3.74036 6.5799 3.68274 6.29042 3.68274 5.99807C3.68274 5.70573 3.74036 5.41625 3.85232 5.14619C3.96427 4.87612 4.12835 4.63078 4.33519 4.42417C4.54179 4.21734 4.78714 4.05325 5.0572 3.9413C5.32726 3.82935 5.61674 3.77173 5.90909 3.77173C6.20144 3.77173 6.49092 3.82935 6.76098 3.9413C7.03104 4.05325 7.27639 4.21734 7.48299 4.42417L7.54973 4.49091C7.81188 4.74733 8.14483 4.91935 8.50565 4.98478C8.86648 5.0502 9.23863 5.00603 9.57412 4.85797H9.6631C9.99209 4.71697 10.2727 4.48285 10.4703 4.18443C10.6679 3.88601 10.774 3.53632 10.7754 3.1784V2.9893C10.7754 2.3993 11.0098 1.83347 11.427 1.41628C11.8442 0.999083 12.41 0.764706 13 0.764706C13.59 0.764706 14.1558 0.999083 14.573 1.41628C14.9902 1.83347 15.2246 2.3993 15.2246 2.9893V3.08941C15.226 3.44733 15.3321 3.79703 15.5297 4.09545C15.7273 4.39387 16.0079 4.62799 16.3369 4.76898C16.6724 4.91705 17.0445 4.96122 17.4054 4.89579C17.7662 4.83037 18.0991 4.65835 18.3613 4.40193L18.428 4.33519C18.6346 4.12835 18.88 3.96427 19.15 3.85232C19.4201 3.74036 19.7096 3.68274 20.0019 3.68274C20.2943 3.68274 20.5838 3.74036 20.8538 3.85232C21.1239 3.96427 21.3692 4.12835 21.5758 4.33519C21.7827 4.54179 21.9467 4.78714 22.0587 5.0572C22.1707 5.32726 22.2283 5.61674 22.2283 5.90909C22.2283 6.20144 22.1707 6.49092 22.0587 6.76098C21.9467 7.03104 21.7827 7.27639 21.5758 7.48299L21.5091 7.54973C21.2527 7.81188 21.0807 8.14483 21.0152 8.50565C20.9498 8.86648 20.994 9.23863 21.142 9.57412V9.6631C21.283 9.99209 21.5171 10.2727 21.8156 10.4703C22.114 10.6679 22.4637 10.774 22.8216 10.7754H23.0107C23.6007 10.7754 24.1665 11.0098 24.5837 11.427C25.0009 11.8442 25.2353 12.41 25.2353 13C25.2353 13.59 25.0009 14.1558 24.5837 14.573C24.1665 14.9902 23.6007 15.2246 23.0107 15.2246H22.9106C22.5527 15.226 22.203 15.3321 21.9046 15.5297C21.6061 15.7273 21.372 16.0079 21.231 16.3369Z" stroke="#090A0A" stroke-width="1.5" stroke-linecap="round" stroke-linejoin="round"/>
</svg>
