<svg width="26" height="26" viewBox="0 0 26 26" fill="none" xmlns="http://www.w3.org/2000/svg">
<path d="M3.48366 25.2353H22.5163C24.018 25.2353 25.2353 24.018 25.2353 22.5163V3.48366C25.2353 1.98202 24.018 0.764706 22.5163 0.764706H3.48366C1.98202 0.764706 0.764706 1.98202 0.764706 3.48366V22.5163C0.764706 24.018 1.98202 25.2353 3.48366 25.2353ZM3.48366 25.2353L18.4379 10.281L25.2353 17.0784M10.281 8.24183C10.281 9.36806 9.36806 10.281 8.24183 10.281C7.1156 10.281 6.20261 9.36806 6.20261 8.24183C6.20261 7.1156 7.1156 6.20261 8.24183 6.20261C9.36806 6.20261 10.281 7.1156 10.281 8.24183Z" stroke="#555555" stroke-width="1.5" stroke-linecap="round" stroke-linejoin="round"/>
</svg>
