<svg width="28" height="28" viewBox="0 0 28 28" fill="none" xmlns="http://www.w3.org/2000/svg">
<path d="M14.5501 21.8484L20.851 25.8489C21.6636 26.3615 22.6637 25.5989 22.4262 24.6613L20.6009 17.4853C20.5516 17.2864 20.5594 17.0776 20.6236 16.8829C20.6877 16.6883 20.8055 16.5157 20.9635 16.3851L26.6143 11.672C27.3519 11.0594 26.9768 9.82171 26.0142 9.7592L18.6381 9.28414C18.4369 9.27243 18.2434 9.20235 18.0813 9.08246C17.9193 8.96257 17.7956 8.79806 17.7255 8.60904L14.9751 1.68308C14.9023 1.48293 14.7697 1.31003 14.5952 1.18785C14.4208 1.06568 14.213 1.00014 14 1.00014C13.787 1.00014 13.5792 1.06568 13.4047 1.18785C13.2303 1.31003 13.0977 1.48293 13.0249 1.68308L10.2745 8.60904C10.2044 8.79806 10.0807 8.96257 9.91866 9.08246C9.75659 9.20235 9.5631 9.27243 9.36185 9.28414L1.98582 9.7592C1.02318 9.82171 0.648132 11.0594 1.38573 11.672L7.03652 16.3851C7.19446 16.5157 7.31229 16.6883 7.37644 16.8829C7.44058 17.0776 7.44843 17.2864 7.39907 17.4853L5.71134 24.1362C5.4238 25.2614 6.62397 26.174 7.5866 25.5614L13.4499 21.8484C13.6143 21.7438 13.8051 21.6883 14 21.6883C14.1948 21.6883 14.3857 21.7438 14.5501 21.8484V21.8484Z" stroke="#FFFF00" stroke-width="2" stroke-linecap="round" stroke-linejoin="round"/>
</svg>
