<svg width="313" height="254" viewBox="0 0 313 254" fill="none" xmlns="http://www.w3.org/2000/svg">
<path d="M22.6981 191.244C3.41567 164.841 -3.32909 133.634 3.73005 103.481C10.7892 73.3276 31.1668 46.3025 61.0372 27.4791C90.9076 8.65557 128.217 -0.671847 165.96 1.24789C203.704 3.16762 239.286 16.2025 266.027 37.9054C292.768 59.6083 308.829 88.4866 311.194 119.119C313.56 149.752 302.067 180.031 278.874 204.274C255.681 228.517 222.382 245.055 185.229 250.784C148.076 256.513 109.624 251.039 77.0917 235.39L23.3456 247.74C21.1436 248.263 18.8089 248.295 16.5862 247.834C14.3635 247.372 12.3347 246.434 10.7124 245.117C9.09012 243.801 7.93411 242.154 7.36555 240.35C6.79699 238.546 6.8368 236.651 7.48084 234.864L22.6981 191.244Z" fill="#E6F0FA" stroke="black" stroke-width="2" stroke-linecap="round" stroke-linejoin="round"/>
</svg>
