<svg width="28" height="28" viewBox="0 0 28 28" fill="none" xmlns="http://www.w3.org/2000/svg">
<path d="M14.5501 21.8486L20.851 25.8492C21.6636 26.3618 22.6638 25.5991 22.4262 24.6615L20.601 17.4854C20.5516 17.2865 20.5595 17.0777 20.6236 16.8831C20.6878 16.6884 20.8056 16.5159 20.9635 16.3853L26.6144 11.6721C27.352 11.0595 26.9769 9.8218 26.0143 9.75929L18.6382 9.28422C18.4369 9.27251 18.2434 9.20243 18.0814 9.08254C17.9193 8.96265 17.7956 8.79814 17.7255 8.60912L14.9751 1.68309C14.9023 1.48294 14.7697 1.31004 14.5952 1.18786C14.4208 1.06569 14.213 1.00015 14 1.00015C13.787 1.00015 13.5792 1.06569 13.4047 1.18786C13.2303 1.31004 13.0977 1.48294 13.0248 1.68309L10.2744 8.60912C10.2043 8.79814 10.0807 8.96265 9.91863 9.08254C9.75655 9.20243 9.56307 9.27251 9.36181 9.28422L1.98571 9.75929C1.02307 9.8218 0.648015 11.0595 1.38562 11.6721L7.03646 16.3853C7.19441 16.5159 7.31224 16.6884 7.37638 16.8831C7.44052 17.0777 7.44837 17.2865 7.39902 17.4854L5.71127 24.1364C5.42372 25.2616 6.6239 26.1742 7.58654 25.5616L13.4499 21.8486C13.6143 21.744 13.8051 21.6885 14 21.6885C14.1948 21.6885 14.3857 21.744 14.5501 21.8486V21.8486Z" stroke="#FFFF00" stroke-width="2" stroke-linecap="round" stroke-linejoin="round"/>
</svg>
